{
    "asset" : {
        "generator" : "Khronos glTF Blender I/O v1.1.46",
        "version" : "2.0"
    },
    "scene" : 0,
    "scenes" : [
        {
            "name" : "Scene",
            "nodes" : [
                0
            ]
        }
    ],
    "nodes" : [
        {
            "mesh" : 0,
            "name" : "Skybox",
            "rotation" : [
                1,
                0,
                0,
                -1.3435885648505064e-07
            ]
        }
    ],
    "meshes" : [
        {
            "name" : "Grid",
            "primitives" : [
                {
                    "attributes" : {
                        "POSITION" : 0,
                        "NORMAL" : 1,
                        "TANGENT" : 2,
                        "TEXCOORD_0" : 3,
                        "COLOR_0" : 4
                    },
                    "indices" : 5
                }
            ]
        }
    ],
    "accessors" : [
        {
            "bufferView" : 0,
            "componentType" : 5126,
            "count" : 2498,
            "max" : [
                0.99897301197052,
                1,
                0.9994860291481018
            ],
            "min" : [
                -0.99897301197052,
                -1,
                -0.9974330067634583
            ],
            "type" : "VEC3"
        },
        {
            "bufferView" : 1,
            "componentType" : 5126,
            "count" : 2498,
            "type" : "VEC3"
        },
        {
            "bufferView" : 2,
            "componentType" : 5126,
            "count" : 2498,
            "type" : "VEC4"
        },
        {
            "bufferView" : 3,
            "componentType" : 5126,
            "count" : 2498,
            "type" : "VEC2"
        },
        {
            "bufferView" : 4,
            "componentType" : 5126,
            "count" : 2498,
            "type" : "VEC4"
        },
        {
            "bufferView" : 5,
            "componentType" : 5123,
            "count" : 14112,
            "type" : "SCALAR"
        }
    ],
    "bufferViews" : [
        {
            "buffer" : 0,
            "byteLength" : 29976,
            "byteOffset" : 0
        },
        {
            "buffer" : 0,
            "byteLength" : 29976,
            "byteOffset" : 29976
        },
        {
            "buffer" : 0,
            "byteLength" : 39968,
            "byteOffset" : 59952
        },
        {
            "buffer" : 0,
            "byteLength" : 19984,
            "byteOffset" : 99920
        },
        {
            "buffer" : 0,
            "byteLength" : 39968,
            "byteOffset" : 119904
        },
        {
            "buffer" : 0,
            "byteLength" : 28224,
            "byteOffset" : 159872
        }
    ],
    "buffers" : [
        {
            "byteLength" : 188096,
            "uri" : "Skybox_Separate.bin"
        }
    ]
}
